<svg width="20" height="20" viewBox="0 0 20 20" fill="none" xmlns="http://www.w3.org/2000/svg">
<path d="M17.12 9.13602L15.4667 7.60002L14 4.66669C13.8741 4.46187 13.6975 4.29295 13.4873 4.17618C13.2771 4.05941 13.0404 3.99875 12.8 4.00002H4.53333C4.2929 3.99875 4.05619 4.05941 3.84602 4.17618C3.63584 4.29295 3.45927 4.46187 3.33333 4.66669L1.86667 7.60002L0.213333 9.13602C0.14598 9.19849 0.0922629 9.2742 0.0555517 9.3584C0.0188406 9.44261 -7.21428e-05 9.53349 2.06794e-07 9.62535V15.3334C2.06794e-07 15.5102 0.0702381 15.6797 0.195262 15.8048C0.320287 15.9298 0.489856 16 0.666667 16H3.33333C3.6 16 4 15.7334 4 15.4667V14.6667H13.3333V15.3334C13.3333 15.6 13.6 16 13.8667 16H16.6667C16.8435 16 17.013 15.9298 17.1381 15.8048C17.2631 15.6797 17.3333 15.5102 17.3333 15.3334V9.62535C17.3334 9.53349 17.3145 9.44261 17.2778 9.3584C17.2411 9.2742 17.1874 9.19849 17.12 9.13602ZM4.66667 5.33335H12.6667L14 8.00002H3.33333L4.66667 5.33335ZM5.33333 11.4667C5.33333 11.7334 4.93333 12 4.66667 12H1.86667C1.6 12 1.33333 11.6 1.33333 11.3334V9.86669C1.46667 9.46669 1.73333 9.20002 2.13333 9.33335L4.8 9.86669C5.06667 9.86669 5.33333 10.2667 5.33333 10.5334V11.4667ZM16 11.3334C16 11.6 15.7333 12 15.4667 12H12.6667C12.4 12 12 11.7334 12 11.4667V10.5334C12 10.2667 12.2667 9.86669 12.5333 9.86669L15.2 9.33335C15.6 9.20002 15.8667 9.46669 16 9.86669V11.3334Z" fill="#68D6C5"/>
</svg>
