<svg width="15" height="19" viewBox="0 0 15 19" fill="none" xmlns="http://www.w3.org/2000/svg">
<path d="M7.25 17.6667C7.25 17.6667 13.5 12.6667 13.5 7.25C13.5 3.79833 10.7017 1 7.25 1C3.79833 1 1 3.79833 1 7.25C1 12.6667 7.25 17.6667 7.25 17.6667Z" stroke="#68D6C5" stroke-width="1.66667" stroke-linejoin="round"/>
<path d="M7.25 9.75C7.5783 9.75 7.90339 9.68534 8.20671 9.5597C8.51002 9.43406 8.78562 9.24991 9.01777 9.01777C9.24991 8.78562 9.43406 8.51002 9.5597 8.20671C9.68534 7.90339 9.75 7.5783 9.75 7.25C9.75 6.9217 9.68534 6.59661 9.5597 6.29329C9.43406 5.98998 9.24991 5.71438 9.01777 5.48223C8.78562 5.25009 8.51002 5.06594 8.20671 4.9403C7.90339 4.81466 7.5783 4.75 7.25 4.75C6.58696 4.75 5.95107 5.01339 5.48223 5.48223C5.01339 5.95107 4.75 6.58696 4.75 7.25C4.75 7.91304 5.01339 8.54893 5.48223 9.01777C5.95107 9.48661 6.58696 9.75 7.25 9.75Z" stroke="#68D6C5" stroke-width="1.66667" stroke-linejoin="round"/>
</svg>
