<svg width="207" height="30" viewBox="0 0 207 30" fill="none" xmlns="http://www.w3.org/2000/svg">
<path d="M0.92 11.64C0.92 9.8 1.18667 8.18667 1.72 6.8C2.28 5.41333 3.01333 4.26667 3.92 3.36C4.82667 2.42667 5.86667 1.73333 7.04 1.28C8.21333 0.8 9.41333 0.559999 10.64 0.559999C13.52 0.559999 15.76 1.45333 17.36 3.24C18.9867 5.02667 19.8 7.69333 19.8 11.24C19.8 11.5067 19.7867 11.8133 19.76 12.16C19.76 12.48 19.7467 12.7733 19.72 13.04H5.92C6.05333 14.72 6.64 16.0267 7.68 16.96C8.74667 17.8667 10.28 18.32 12.28 18.32C13.4533 18.32 14.52 18.2133 15.48 18C16.4667 17.7867 17.24 17.56 17.8 17.32L18.44 21.28C18.1733 21.4133 17.8 21.56 17.32 21.72C16.8667 21.8533 16.3333 21.9733 15.72 22.08C15.1333 22.2133 14.4933 22.32 13.8 22.4C13.1067 22.48 12.4 22.52 11.68 22.52C9.84 22.52 8.24 22.2533 6.88 21.72C5.52 21.16 4.4 20.4 3.52 19.44C2.64 18.4533 1.98667 17.3067 1.56 16C1.13333 14.6667 0.92 13.2133 0.92 11.64ZM14.96 9.48C14.96 8.81333 14.8667 8.18667 14.68 7.6C14.4933 6.98667 14.2133 6.46667 13.84 6.04C13.4933 5.58667 13.0533 5.24 12.52 5C12.0133 4.73333 11.4 4.6 10.68 4.6C9.93333 4.6 9.28 4.74667 8.72 5.04C8.16 5.30667 7.68 5.66667 7.28 6.12C6.90667 6.57333 6.61333 7.09333 6.4 7.68C6.18667 8.26667 6.04 8.86667 5.96 9.48H14.96ZM32.2916 18.6C33.7849 18.6 34.9182 18.52 35.6916 18.36V13C35.4249 12.92 35.0382 12.84 34.5316 12.76C34.0249 12.68 33.4649 12.64 32.8516 12.64C32.3182 12.64 31.7716 12.68 31.2116 12.76C30.6782 12.84 30.1849 12.9867 29.7316 13.2C29.3049 13.4133 28.9582 13.72 28.6916 14.12C28.4249 14.4933 28.2916 14.9733 28.2916 15.56C28.2916 16.7067 28.6516 17.5067 29.3716 17.96C30.0916 18.3867 31.0649 18.6 32.2916 18.6ZM31.8916 0.559999C33.4916 0.559999 34.8382 0.759999 35.9316 1.16C37.0249 1.56 37.8916 2.12 38.5316 2.84C39.1982 3.56 39.6649 4.44 39.9316 5.48C40.2249 6.49333 40.3716 7.61333 40.3716 8.84V21.52C39.6249 21.68 38.4916 21.8667 36.9716 22.08C35.4782 22.32 33.7849 22.44 31.8916 22.44C30.6382 22.44 29.4916 22.32 28.4516 22.08C27.4116 21.84 26.5182 21.4533 25.7716 20.92C25.0516 20.3867 24.4782 19.6933 24.0516 18.84C23.6516 17.9867 23.4516 16.9333 23.4516 15.68C23.4516 14.48 23.6782 13.4667 24.1316 12.64C24.6116 11.8133 25.2516 11.1467 26.0516 10.64C26.8516 10.1067 27.7716 9.73333 28.8116 9.52C29.8782 9.28 30.9849 9.16 32.1316 9.16C32.6649 9.16 33.2249 9.2 33.8116 9.28C34.3982 9.33333 35.0249 9.44 35.6916 9.6V8.8C35.6916 8.24 35.6249 7.70667 35.4916 7.2C35.3582 6.69333 35.1182 6.25333 34.7716 5.88C34.4516 5.48 34.0116 5.17333 33.4516 4.96C32.9182 4.74667 32.2382 4.64 31.4116 4.64C30.2916 4.64 29.2649 4.72 28.3316 4.88C27.3982 5.04 26.6382 5.22667 26.0516 5.44L25.4516 1.52C26.0649 1.30667 26.9582 1.09333 28.1316 0.88C29.3049 0.666666 30.5582 0.559999 31.8916 0.559999ZM51.5388 18.52C52.8188 18.52 53.7521 18.3733 54.3388 18.08C54.9254 17.76 55.2188 17.2267 55.2188 16.48C55.2188 15.7867 54.8988 15.2133 54.2588 14.76C53.6454 14.3067 52.6188 13.8133 51.1788 13.28C50.2988 12.96 49.4854 12.6267 48.7388 12.28C48.0188 11.9067 47.3921 11.48 46.8588 11C46.3254 10.52 45.8988 9.94667 45.5788 9.28C45.2854 8.58667 45.1388 7.74667 45.1388 6.76C45.1388 4.84 45.8454 3.33333 47.2588 2.24C48.6721 1.12 50.5921 0.559999 53.0188 0.559999C54.2454 0.559999 55.4188 0.68 56.5388 0.92C57.6588 1.13333 58.4988 1.34666 59.0588 1.56L58.1788 5.48C57.6454 5.24 56.9654 5.02667 56.1388 4.84C55.3121 4.62667 54.3521 4.52 53.2588 4.52C52.2721 4.52 51.4721 4.69333 50.8588 5.04C50.2454 5.36 49.9388 5.86667 49.9388 6.56C49.9388 6.90667 49.9921 7.21333 50.0988 7.48C50.2321 7.74667 50.4454 8 50.7388 8.24C51.0321 8.45333 51.4188 8.68 51.8988 8.92C52.3788 9.13333 52.9654 9.36 53.6588 9.6C54.8054 10.0267 55.7788 10.4533 56.5788 10.88C57.3788 11.28 58.0321 11.7467 58.5388 12.28C59.0721 12.7867 59.4588 13.3733 59.6988 14.04C59.9388 14.7067 60.0588 15.5067 60.0588 16.44C60.0588 18.44 59.3121 19.96 57.8188 21C56.3521 22.0133 54.2454 22.52 51.4988 22.52C49.6588 22.52 48.1788 22.36 47.0588 22.04C45.9388 21.7467 45.1521 21.5067 44.6988 21.32L45.5388 17.28C46.2588 17.5733 47.1121 17.8533 48.0988 18.12C49.1121 18.3867 50.2588 18.52 51.5388 18.52ZM81.66 1.08C79.5 9.02667 76.9933 16.2267 74.14 22.68C73.6067 23.88 73.06 24.9067 72.5 25.76C71.94 26.6133 71.3133 27.32 70.62 27.88C69.9267 28.44 69.1533 28.84 68.3 29.08C67.4467 29.3467 66.46 29.48 65.34 29.48C64.5933 29.48 63.8467 29.4 63.1 29.24C62.38 29.08 61.8333 28.9067 61.46 28.72L62.34 24.84C63.3 25.2133 64.2467 25.4 65.18 25.4C66.4333 25.4 67.4067 25.0933 68.1 24.48C68.82 23.8933 69.4467 22.9733 69.98 21.72C68.46 18.7867 66.9933 15.5867 65.58 12.12C64.1933 8.65333 62.9533 4.97333 61.86 1.08H67.02C67.2867 2.2 67.6067 3.41333 67.98 4.72C68.38 6.02667 68.8067 7.36 69.26 8.72C69.7133 10.0533 70.1933 11.3867 70.7 12.72C71.2067 14.0533 71.7133 15.2933 72.22 16.44C73.0733 14.0667 73.8733 11.5467 74.62 8.88C75.3667 6.18667 76.0467 3.58667 76.66 1.08H81.66ZM94.7872 11.56C94.7872 10.0133 95.0272 8.57333 95.5072 7.24C95.9872 5.88 96.6672 4.70667 97.5472 3.72C98.4539 2.73333 99.5472 1.96 100.827 1.4C102.107 0.839999 103.547 0.559999 105.147 0.559999C107.121 0.559999 108.987 0.92 110.747 1.64L109.707 5.6C109.147 5.36 108.507 5.16 107.787 5C107.094 4.84 106.347 4.76 105.547 4.76C103.654 4.76 102.214 5.36 101.227 6.56C100.241 7.73333 99.7472 9.4 99.7472 11.56C99.7472 13.64 100.214 15.2933 101.147 16.52C102.081 17.72 103.654 18.32 105.867 18.32C106.694 18.32 107.507 18.24 108.307 18.08C109.107 17.92 109.801 17.72 110.387 17.48L111.067 21.48C110.534 21.7467 109.721 21.9867 108.627 22.2C107.561 22.4133 106.454 22.52 105.307 22.52C103.521 22.52 101.961 22.2533 100.627 21.72C99.3205 21.16 98.2272 20.4 97.3472 19.44C96.4939 18.4533 95.8539 17.2933 95.4272 15.96C95.0005 14.6 94.7872 13.1333 94.7872 11.56ZM122.174 18.6C123.668 18.6 124.801 18.52 125.574 18.36V13C125.308 12.92 124.921 12.84 124.414 12.76C123.908 12.68 123.348 12.64 122.734 12.64C122.201 12.64 121.654 12.68 121.094 12.76C120.561 12.84 120.068 12.9867 119.614 13.2C119.188 13.4133 118.841 13.72 118.574 14.12C118.308 14.4933 118.174 14.9733 118.174 15.56C118.174 16.7067 118.534 17.5067 119.254 17.96C119.974 18.3867 120.948 18.6 122.174 18.6ZM121.774 0.559999C123.374 0.559999 124.721 0.759999 125.814 1.16C126.908 1.56 127.774 2.12 128.414 2.84C129.081 3.56 129.548 4.44 129.814 5.48C130.108 6.49333 130.254 7.61333 130.254 8.84V21.52C129.508 21.68 128.374 21.8667 126.854 22.08C125.361 22.32 123.668 22.44 121.774 22.44C120.521 22.44 119.374 22.32 118.334 22.08C117.294 21.84 116.401 21.4533 115.654 20.92C114.934 20.3867 114.361 19.6933 113.934 18.84C113.534 17.9867 113.334 16.9333 113.334 15.68C113.334 14.48 113.561 13.4667 114.014 12.64C114.494 11.8133 115.134 11.1467 115.934 10.64C116.734 10.1067 117.654 9.73333 118.694 9.52C119.761 9.28 120.868 9.16 122.014 9.16C122.548 9.16 123.108 9.2 123.694 9.28C124.281 9.33333 124.908 9.44 125.574 9.6V8.8C125.574 8.24 125.508 7.70667 125.374 7.2C125.241 6.69333 125.001 6.25333 124.654 5.88C124.334 5.48 123.894 5.17333 123.334 4.96C122.801 4.74667 122.121 4.64 121.294 4.64C120.174 4.64 119.148 4.72 118.214 4.88C117.281 5.04 116.521 5.22667 115.934 5.44L115.334 1.52C115.948 1.30667 116.841 1.09333 118.014 0.88C119.188 0.666666 120.441 0.559999 121.774 0.559999ZM148.102 5.44C147.702 5.30667 147.142 5.17333 146.422 5.04C145.728 4.88 144.915 4.8 143.982 4.8C143.448 4.8 142.875 4.85333 142.262 4.96C141.675 5.06667 141.262 5.16 141.022 5.24V22H136.182V2.08C137.115 1.73333 138.275 1.41333 139.662 1.12C141.075 0.799999 142.635 0.639998 144.342 0.639998C144.662 0.639998 145.035 0.666666 145.462 0.72C145.888 0.746666 146.315 0.8 146.742 0.88C147.168 0.933333 147.582 1.01333 147.982 1.12C148.382 1.2 148.702 1.28 148.942 1.36L148.102 5.44ZM164.234 5.44C163.834 5.30667 163.274 5.17333 162.554 5.04C161.861 4.88 161.048 4.8 160.114 4.8C159.581 4.8 159.008 4.85333 158.394 4.96C157.808 5.06667 157.394 5.16 157.154 5.24V22H152.314V2.08C153.248 1.73333 154.408 1.41333 155.794 1.12C157.208 0.799999 158.768 0.639998 160.474 0.639998C160.794 0.639998 161.168 0.666666 161.594 0.72C162.021 0.746666 162.448 0.8 162.874 0.88C163.301 0.933333 163.714 1.01333 164.114 1.12C164.514 1.2 164.834 1.28 165.074 1.36L164.234 5.44ZM187.367 11.52C187.367 13.1733 187.127 14.68 186.647 16.04C186.167 17.4 185.487 18.56 184.607 19.52C183.727 20.48 182.661 21.2267 181.407 21.76C180.181 22.2933 178.821 22.56 177.327 22.56C175.834 22.56 174.474 22.2933 173.247 21.76C172.021 21.2267 170.967 20.48 170.087 19.52C169.207 18.56 168.514 17.4 168.007 16.04C167.527 14.68 167.287 13.1733 167.287 11.52C167.287 9.86667 167.527 8.37333 168.007 7.04C168.514 5.68 169.207 4.52 170.087 3.56C170.994 2.6 172.061 1.86667 173.287 1.36C174.514 0.826666 175.861 0.559999 177.327 0.559999C178.794 0.559999 180.141 0.826666 181.367 1.36C182.621 1.86667 183.687 2.6 184.567 3.56C185.447 4.52 186.127 5.68 186.607 7.04C187.114 8.37333 187.367 9.86667 187.367 11.52ZM182.407 11.52C182.407 9.44 181.954 7.8 181.047 6.6C180.167 5.37333 178.927 4.76 177.327 4.76C175.727 4.76 174.474 5.37333 173.567 6.6C172.687 7.8 172.247 9.44 172.247 11.52C172.247 13.6267 172.687 15.2933 173.567 16.52C174.474 17.7467 175.727 18.36 177.327 18.36C178.927 18.36 180.167 17.7467 181.047 16.52C181.954 15.2933 182.407 13.6267 182.407 11.52ZM197.593 18.52C198.873 18.52 199.807 18.3733 200.393 18.08C200.98 17.76 201.273 17.2267 201.273 16.48C201.273 15.7867 200.953 15.2133 200.313 14.76C199.7 14.3067 198.673 13.8133 197.233 13.28C196.353 12.96 195.54 12.6267 194.793 12.28C194.073 11.9067 193.447 11.48 192.913 11C192.38 10.52 191.953 9.94667 191.633 9.28C191.34 8.58667 191.193 7.74667 191.193 6.76C191.193 4.84 191.9 3.33333 193.313 2.24C194.727 1.12 196.647 0.559999 199.073 0.559999C200.3 0.559999 201.473 0.68 202.593 0.92C203.713 1.13333 204.553 1.34666 205.113 1.56L204.233 5.48C203.7 5.24 203.02 5.02667 202.193 4.84C201.367 4.62667 200.407 4.52 199.313 4.52C198.327 4.52 197.527 4.69333 196.913 5.04C196.3 5.36 195.993 5.86667 195.993 6.56C195.993 6.90667 196.047 7.21333 196.153 7.48C196.287 7.74667 196.5 8 196.793 8.24C197.087 8.45333 197.473 8.68 197.953 8.92C198.433 9.13333 199.02 9.36 199.713 9.6C200.86 10.0267 201.833 10.4533 202.633 10.88C203.433 11.28 204.087 11.7467 204.593 12.28C205.127 12.7867 205.513 13.3733 205.753 14.04C205.993 14.7067 206.113 15.5067 206.113 16.44C206.113 18.44 205.367 19.96 203.873 21C202.407 22.0133 200.3 22.52 197.553 22.52C195.713 22.52 194.233 22.36 193.113 22.04C191.993 21.7467 191.207 21.5067 190.753 21.32L191.593 17.28C192.313 17.5733 193.167 17.8533 194.153 18.12C195.167 18.3867 196.313 18.52 197.593 18.52Z" fill="white"/>
<path d="M90.7622 19.36C90.7622 20.2933 90.4422 21.0533 89.8022 21.64C89.1889 22.2267 88.4422 22.52 87.5622 22.52C86.6555 22.52 85.8955 22.2267 85.2822 21.64C84.6689 21.0533 84.3622 20.2933 84.3622 19.36C84.3622 18.4267 84.6689 17.6667 85.2822 17.08C85.8955 16.4667 86.6555 16.16 87.5622 16.16C88.4422 16.16 89.1889 16.4667 89.8022 17.08C90.4422 17.6667 90.7622 18.4267 90.7622 19.36Z" fill="#68D6C5"/>
</svg>
