<svg width="44" height="44" viewBox="0 0 44 44" fill="none" xmlns="http://www.w3.org/2000/svg">
<g clip-path="url(#clip0_107_505)">
<path d="M22 7.76097L12.925 16.5319C11.1304 18.2666 9.90824 20.4767 9.41317 22.8827C8.9181 25.2887 9.17232 27.7825 10.1437 30.0489C11.115 32.3152 12.7599 34.2523 14.8703 35.6152C16.9807 36.978 19.4619 37.7054 22 37.7054C24.5381 37.7054 27.0193 36.978 29.1297 35.6152C31.2401 34.2523 32.885 32.3152 33.8563 30.0489C34.8277 27.7825 35.0819 25.2887 34.5868 22.8827C34.0918 20.4767 32.8696 18.2666 31.075 16.5319L22 7.76097ZM22 2.75L33.6673 14.0265C35.9749 16.2567 37.5463 19.0982 38.183 22.1917C38.8196 25.2852 38.4928 28.4916 37.244 31.4056C35.9951 34.3195 33.8803 36.8101 31.1669 38.5624C28.4535 40.3147 25.2634 41.25 22 41.25C18.7366 41.25 15.5465 40.3147 12.8331 38.5624C10.1197 36.8101 8.00487 34.3195 6.75601 31.4056C5.50716 28.4916 5.1804 25.2852 5.81704 22.1917C6.45368 19.0982 8.02513 16.2567 10.3327 14.0265L22 2.75Z" fill="#47474D"/>
</g>
<defs>
<clipPath id="clip0_107_505">
<rect width="44" height="44" fill="white"/>
</clipPath>
</defs>
</svg>
