<svg width="45" height="44" viewBox="0 0 45 44" fill="none" xmlns="http://www.w3.org/2000/svg">
<path d="M29.7028 22.2007C32.4718 23.4804 34.8328 25.4722 36.5331 27.9631C38.2333 30.4539 39.2089 33.3499 39.3553 36.3412C39.3746 36.6152 39.3377 36.8902 39.2469 37.1501C39.156 37.4101 39.0129 37.6496 38.8261 37.8547C38.6392 38.0598 38.4123 38.2264 38.1588 38.3446C37.9052 38.4628 37.63 38.5303 37.3494 38.5431C37.0688 38.556 36.7884 38.5138 36.5246 38.4193C36.2609 38.3247 36.0191 38.1795 35.8135 37.9924C35.6079 37.8052 35.4426 37.5797 35.3273 37.3292C35.212 37.0787 35.1491 36.8083 35.1422 36.5337C34.9889 33.3561 33.59 30.3583 31.2359 28.1626C28.8818 25.9669 25.7534 24.7419 22.5 24.7419C19.2466 24.7419 16.1182 25.9669 13.7641 28.1626C11.41 30.3583 10.0111 33.3561 9.85781 36.5337C9.81992 37.0715 9.56816 37.5735 9.15643 37.9321C8.7447 38.2906 8.20573 38.4774 7.65496 38.4522C7.10418 38.427 6.58537 38.192 6.20964 37.7974C5.8339 37.4029 5.63111 36.8801 5.64468 36.3412C5.79054 33.3501 6.76555 30.4542 8.46534 27.9633C10.1651 25.4725 12.5257 23.4805 15.2944 22.2007C13.5197 20.7533 12.2441 18.8066 11.6411 16.6252C11.038 14.4439 11.1368 12.1339 11.9241 10.0094C12.7113 7.88498 14.1487 6.04918 16.0407 4.75176C17.9328 3.45435 20.1876 2.7583 22.4986 2.7583C24.8096 2.7583 27.0644 3.45435 28.9565 4.75176C30.8485 6.04918 32.2859 7.88498 33.0731 10.0094C33.8603 12.1339 33.9591 14.4439 33.3561 16.6252C32.7531 18.8066 31.4775 20.7533 29.7028 22.2007ZM29.5312 13.7499C29.5312 11.9265 28.7905 10.1779 27.4718 8.88855C26.1532 7.59923 24.3648 6.87491 22.5 6.87491C20.6352 6.87491 18.8468 7.59923 17.5282 8.88855C16.2095 10.1779 15.4687 11.9265 15.4687 13.7499C15.4687 15.5733 16.2095 17.322 17.5282 18.6113C18.8468 19.9006 20.6352 20.6249 22.5 20.6249C24.3648 20.6249 26.1532 19.9006 27.4718 18.6113C28.7905 17.322 29.5312 15.5733 29.5312 13.7499Z" fill="#47474D"/>
</svg>
